<?xml version="1.0" encoding="UTF-8"?>
<svg xmlns="http://www.w3.org/2000/svg" viewBox="0 0 759 648.45">
  <defs>
    <style>
      .cls-1 {
        stroke-linecap: round;
      }

      .cls-1, .cls-2 {
        fill: none;
        stroke: #C3D7E9;
        stroke-miterlimit: 15;
        stroke-width: 15px;
      }
    </style>
  </defs>
  <g id="Layer_1" data-name="Layer 1">
    <path class="cls-1" d="m280.5,187.5c-14.38,13.41-34.55,29.58-61,44-22.72,12.39-43.85,20.09-61,25-17.45,5.31-25.69,22.1-22,33,3.98,11.78,23.17,20.43,41,11,19.14-6.27,42.29-15.66,67-30,20.58-11.94,37.51-24.56,51-36"/>
    <line class="cls-1" x1="419" y1="208" x2="454.5" y2="304.5"/>
    <path class="cls-1" d="m468.5,152.5c22.82,10.87,61.99,33.34,96,76,23.79,29.85,36.78,59.21,44,80,1.12,11.58-6.29,22.2-17,25-11.63,3.04-24.23-3.89-28-16-6.38-14.35-15.62-31.76-29-50-15.15-20.65-30.97-36.04-44-47"/>
    <line class="cls-1" x1="606.42" y1="320.79" x2="751.5" y2="379.5"/>
    <polyline class="cls-1" points="726.5 527.5 231.5 640.5 170.5 606.5"/>
    <line class="cls-1" x1="626.5" y1="569.5" x2="693.76" y2="569.5"/>
    <line class="cls-1" x1="478.5" y1="558.5" x2="406.85" y2="558.5"/>
    <line class="cls-1" x1="136.5" y1="289.5" x2="7.5" y2="438.5"/>
  </g>
  <g id="Layer_2" data-name="Layer 2">
    <circle class="cls-2" cx="329" cy="58" r="50.5"/>
    <path class="cls-2" d="m315.5,216.5c13.25,42.41,26.5,84.83,39.75,127.24.05.15,0,.32-.13.43l-87.61,73.31s-.02.02-.03.02c-2.03,1.34-11.08,7.64-13.98,19.99-2.71,11.53,1.75,20.64,2.98,22.97.01.02.02.04.03.07,13.33,45.32,26.66,90.64,39.99,135.96,4.79,15.9,22.22,23.77,36,18,12.62-5.29,19.46-20.87,14.01-34.98,0-.01,0-.02-.01-.03-11.31-42.58-22.62-85.16-33.93-127.73-.04-.15.01-.31.13-.41,27.58-22.6,55.16-45.19,82.74-67.79.04-.03.08-.05.12-.07,9.33-3.22,18.67-6.44,28-9.66.34-.12.65.24.49.56-5.18,10.35-10.35,20.71-15.53,31.06-.02.04-.04.07-.07.1-1.56,1.52-7.21,7.44-7.96,16.96-.81,10.34,4.75,17.47,5.99,18.98.01.01.02.02.03.03,40.66,39.33,81.32,78.66,121.98,117.98,8.91,9.78,23.93,10.97,34,3,10.5-8.31,12.47-24.07,4.02-34.98,0-.01-.02-.03-.03-.04l-101.79-107.78c-.12-.12-.14-.31-.07-.46,12.87-25.03,25.75-50.06,38.62-75.09.05-.1.06-.22.02-.32-20.59-55.44-41.18-110.89-61.77-166.33"/>
    <path class="cls-2" d="m315.5,216.5c-10-32,6.21-75.86,42-87,35.86-11.16,70,11,84,48"/>
  </g>
</svg>